<svg width="1154" height="377" viewBox="0 0 1154 377" fill="none" xmlns="http://www.w3.org/2000/svg">
<path d="M56.4771 281.919C38.1828 281.919 24.9744 277.364 16.852 268.255C8.80557 259.145 4.78234 244.647 4.78234 224.758V205.173H44.4074V230.224C44.4074 234.854 45.0906 238.498 46.457 241.155C47.8993 243.736 50.3664 245.026 53.8582 245.026C57.5019 245.026 60.0069 243.963 61.3733 241.838C62.8156 239.713 63.5368 236.221 63.5368 231.362C63.5368 225.214 62.9295 220.09 61.7149 215.991C60.5004 211.816 58.3749 207.868 55.3385 204.149C52.378 200.353 48.2409 195.95 42.9272 190.94L24.9365 173.86C11.5004 161.183 4.78234 146.685 4.78234 130.364C4.78234 113.284 8.72966 100.266 16.6243 91.3082C24.5949 82.3508 36.0953 77.8721 51.1255 77.8721C69.4957 77.8721 82.5143 82.7683 90.1812 92.5607C97.924 102.353 101.795 117.232 101.795 137.196H61.0317V123.418C61.0317 120.685 60.2347 118.56 58.6406 117.042C57.1224 115.524 55.0348 114.764 52.378 114.764C49.1898 114.764 46.8365 115.675 45.3183 117.497C43.876 119.243 43.1549 121.52 43.1549 124.329C43.1549 127.138 43.914 130.174 45.4322 133.438C46.9504 136.702 49.9489 140.46 54.4275 144.711L77.5422 166.915C82.1727 171.317 86.4237 175.986 90.2951 180.92C94.1665 185.778 97.2788 191.472 99.632 198C101.985 204.452 103.162 212.347 103.162 221.684C103.162 240.51 99.67 255.274 92.6862 265.977C85.7784 276.605 73.7087 281.919 56.4771 281.919ZM160.272 281.919C141.143 281.919 127.555 277.022 119.508 267.23C111.538 257.438 107.552 243.053 107.552 224.075V171.469C107.552 157.198 109.071 145.318 112.107 135.83C115.143 126.341 120.457 119.243 128.048 114.537C135.639 109.83 146.191 107.477 159.703 107.477C169.116 107.477 177.542 109.147 184.981 112.487C192.496 115.827 198.417 120.723 202.744 127.176C207.071 133.628 209.234 141.523 209.234 150.86V176.935H167.673V153.023C167.673 149.076 167.104 145.774 165.965 143.117C164.827 140.384 162.36 139.018 158.564 139.018C151.884 139.018 148.544 143.762 148.544 153.251V236.031C148.544 239.523 149.303 242.749 150.821 245.709C152.339 248.594 154.844 250.036 158.336 250.036C161.904 250.036 164.371 248.632 165.738 245.823C167.18 242.939 167.901 239.599 167.901 235.803V207.109H209.234V236.942C209.234 246.355 207.109 254.439 202.858 261.195C198.683 267.875 192.913 272.999 185.55 276.567C178.187 280.135 169.761 281.919 160.272 281.919ZM247.557 281.919C238.068 281.919 230.818 279.717 225.808 275.314C220.874 270.912 217.496 264.877 215.674 257.21C213.852 249.543 212.942 240.851 212.942 231.135C212.942 220.735 213.966 212.233 216.016 205.629C218.065 198.949 221.557 193.483 226.491 189.232C231.502 184.981 238.371 181.376 247.101 178.415L272.379 169.761V152.226C272.379 143.041 269.381 138.448 263.384 138.448C257.918 138.448 255.186 142.168 255.186 149.607V159.855H215.56C215.485 159.248 215.447 158.489 215.447 157.578C215.447 156.591 215.447 155.49 215.447 154.276C215.447 137.272 219.432 125.24 227.402 118.18C235.449 111.045 248.164 107.477 265.547 107.477C274.656 107.477 282.817 109.109 290.028 112.373C297.24 115.562 302.933 120.306 307.108 126.606C311.359 132.907 313.484 140.688 313.484 149.949V280.097H272.948V259.829C270.975 266.964 267.711 272.43 263.156 276.225C258.601 280.021 253.402 281.919 247.557 281.919ZM263.612 250.264C266.952 250.264 269.229 248.86 270.443 246.051C271.658 243.242 272.265 240.206 272.265 236.942V189.346C266.648 191.623 262.283 194.508 259.171 198C256.058 201.416 254.502 206.464 254.502 213.144V235.12C254.502 245.216 257.539 250.264 263.612 250.264ZM322.202 280.097V79.694H363.649V280.097H322.202ZM420.873 281.919C408.727 281.919 399.049 279.641 391.837 275.087C384.626 270.532 379.464 263.966 376.352 255.388C373.239 246.81 371.683 236.486 371.683 224.417V155.756C371.683 139.891 376.238 127.897 385.347 119.775C394.456 111.576 406.981 107.477 422.923 107.477C455.716 107.477 472.112 123.57 472.112 155.756V168.167C472.112 183.197 471.96 193.293 471.657 198.455H412.447V231.476C412.447 234.513 412.637 237.511 413.016 240.472C413.396 243.356 414.231 245.747 415.521 247.645C416.888 249.543 419.051 250.492 422.012 250.492C426.263 250.492 428.919 248.67 429.982 245.026C431.045 241.307 431.576 236.486 431.576 230.565V214.169H472.112V223.847C472.112 236.6 470.518 247.304 467.33 255.957C464.218 264.535 458.904 271.025 451.389 275.428C443.95 279.755 433.778 281.919 420.873 281.919ZM412.219 178.187H431.576V155.187C431.576 149.038 430.817 144.635 429.299 141.978C427.781 139.245 425.503 137.879 422.467 137.879C419.203 137.879 416.66 139.17 414.838 141.751C413.092 144.331 412.219 148.81 412.219 155.187V178.187ZM577.224 281.919C543.216 281.919 526.212 264.269 526.212 228.971V160.424C526.212 144.331 530.729 131.503 539.762 121.938C548.795 112.297 561.282 107.477 577.224 107.477C593.241 107.477 605.766 112.297 614.799 121.938C623.832 131.503 628.349 144.331 628.349 160.424V228.971C628.349 264.269 611.307 281.919 577.224 281.919ZM577.224 250.492C580.639 250.492 583.069 249.277 584.511 246.848C586.029 244.343 586.788 241.193 586.788 237.397V153.934C586.788 143.99 583.6 139.018 577.224 139.018C570.847 139.018 567.659 143.99 567.659 153.934V237.397C567.659 241.193 568.38 244.343 569.822 246.848C571.34 249.277 573.808 250.492 577.224 250.492ZM640.255 280.097V147.899H632.853V116.814H640.255V105.2C640.255 86.8295 649.44 77.6444 667.81 77.6444C676.464 77.6444 683.448 78.7451 688.761 80.9465V106.111C686.864 105.731 685.611 105.541 685.004 105.541C682.651 105.541 681.208 106.414 680.677 108.16C680.145 109.83 679.88 111.994 679.88 114.651V116.814H688.761V148.355H680.677V280.097H640.255ZM760.396 280.097V118.18H736.598V79.694H824.275V118.18H800.477V280.097H760.396ZM827.526 98.8233V64.8915H868.29V98.8233H827.526ZM827.526 280.097V109.299H868.29V280.097H827.526ZM877.463 280.097V109.299H917.316V129.111C919.138 122.128 922.25 116.776 926.653 113.056C931.056 109.337 937.508 107.477 946.01 107.477C952.842 107.477 958.649 109.071 963.431 112.259C968.29 115.372 971.706 119.509 973.679 124.671C976.792 119.053 980.435 114.802 984.61 111.918C988.861 108.957 994.896 107.477 1002.71 107.477C1012.2 107.477 1019.49 109.527 1024.58 113.626C1029.74 117.649 1033.31 123.266 1035.28 130.478C1037.33 137.613 1038.35 145.888 1038.35 155.3V280.097H997.705V154.617C997.705 143.61 994.896 138.107 989.279 138.107C986.318 138.107 984.041 139.132 982.447 141.181C980.853 143.155 979.752 145.622 979.145 148.582C978.537 151.543 978.234 154.503 978.234 157.464V280.097H937.584V154.617C937.584 151.049 937.129 147.482 936.218 143.914C935.383 140.346 933.181 138.562 929.613 138.562C926.577 138.562 924.224 139.663 922.554 141.864C920.884 144.066 919.745 146.799 919.138 150.063C918.531 153.251 918.227 156.401 918.227 159.513V280.097H877.463ZM1095.24 281.919C1083.09 281.919 1073.41 279.641 1066.2 275.087C1058.99 270.532 1053.83 263.966 1050.72 255.388C1047.6 246.81 1046.05 236.486 1046.05 224.417V155.756C1046.05 139.891 1050.6 127.897 1059.71 119.775C1068.82 111.576 1081.35 107.477 1097.29 107.477C1130.08 107.477 1146.48 123.57 1146.48 155.756V168.167C1146.48 183.197 1146.32 193.293 1146.02 198.455H1086.81V231.476C1086.81 234.513 1087 237.511 1087.38 240.472C1087.76 243.356 1088.59 245.747 1089.89 247.645C1091.25 249.543 1093.42 250.492 1096.38 250.492C1100.63 250.492 1103.28 248.67 1104.35 245.026C1105.41 241.307 1105.94 236.486 1105.94 230.565V214.169H1146.48V223.847C1146.48 236.6 1144.88 247.304 1141.69 255.957C1138.58 264.535 1133.27 271.025 1125.75 275.428C1118.31 279.755 1108.14 281.919 1095.24 281.919ZM1086.58 178.187H1105.94V155.187C1105.94 149.038 1105.18 144.635 1103.66 141.978C1102.14 139.245 1099.87 137.879 1096.83 137.879C1093.57 137.879 1091.02 139.17 1089.2 141.751C1087.46 144.331 1086.58 148.81 1086.58 155.187V178.187Z" fill="#FC5101"/>
<circle cx="907" cy="337.93" r="3" fill="#FC5101"/>
<circle cx="895" cy="337.93" r="3" fill="#FC5101"/>
<circle cx="883" cy="337.93" r="3" fill="#FC5101"/>
<circle cx="919" cy="337.93" r="3" fill="#FC5101"/>
<circle cx="363" cy="37.9297" r="3" fill="#FC5101"/>
<circle cx="351" cy="37.9297" r="3" fill="#FC5101"/>
<circle cx="339" cy="37.9297" r="3" fill="#FC5101"/>
<circle cx="375" cy="37.9297" r="3" fill="#FC5101"/>
<path d="M34.9752 57.2807C30.4149 57.2807 26.435 56.576 23.0355 55.1664C19.6775 53.7569 17.0657 51.8291 15.2002 49.3832C13.376 46.8958 12.464 44.0767 12.464 40.9259C12.464 38.3556 12.92 36.0133 13.8321 33.899C14.7441 31.7847 15.9464 30.0227 17.4388 28.6132C18.9727 27.2037 20.6518 26.2709 22.4759 25.8148C22.7661 25.7734 22.9112 25.877 22.9112 26.1258C22.9112 26.3331 22.8075 26.4989 22.6002 26.6233C20.4445 27.9084 18.7862 29.7533 17.6254 32.1578C16.5061 34.5623 15.9464 37.2363 15.9464 40.1797C15.9464 43.3719 16.7755 46.1288 18.4338 48.4504C20.0921 50.7305 22.3515 52.4717 25.212 53.674C28.114 54.9177 31.3684 55.5395 34.9752 55.5395C38.0844 55.5395 41.0279 54.9799 43.8055 53.8605C46.6246 52.7827 49.2157 51.2902 51.5787 49.3832C53.9418 47.4762 56.0561 45.3204 57.9216 42.9159C59.8287 40.4699 61.4248 37.9203 62.7099 35.2671C63.0001 34.6452 63.2903 34.0441 63.5805 33.4637C63.8707 32.8833 64.1609 32.3029 64.4511 31.7225C63.4562 31.681 62.5441 31.6396 61.715 31.5981C60.9273 31.5566 60.3883 31.5359 60.0981 31.5359C58.9788 31.5359 57.7765 31.6188 56.4914 31.7847C55.2477 31.909 54.0661 32.1785 52.9468 32.5931C51.8689 33.0076 50.9776 33.6502 50.2728 34.5208C49.9826 34.811 49.7961 35.039 49.7131 35.2049C49.6717 35.3707 49.5888 35.4536 49.4644 35.4536C49.2986 35.4536 49.1535 35.3292 49.0291 35.0805C48.9047 34.7903 48.9255 34.4794 49.0913 34.1477C50.0448 32.0334 51.3922 30.6031 53.1334 29.8569C54.8745 29.0692 56.823 28.6754 58.9788 28.6754C59.4348 28.6754 60.2847 28.7583 61.5284 28.9241C62.8136 29.0485 64.1609 29.1936 65.5705 29.3594C67.3946 25.6697 69.0529 22.3325 70.5453 19.3475C72.0792 16.3626 73.5095 13.8752 74.8361 11.8853C71.8512 10.8903 68.6797 10.0197 65.3217 9.27349C61.9637 8.4858 58.3569 8.09196 54.5014 8.09196C51.6409 8.09196 49.0498 8.4858 46.7282 9.27349C44.4066 10.0612 42.4167 11.1183 40.7584 12.445C39.1416 13.7716 37.8979 15.2433 37.0273 16.8601C36.1567 18.4769 35.7214 20.0938 35.7214 21.7106C35.7214 23.5347 36.0738 24.9857 36.7785 26.0636C37.4833 27.1415 38.3954 27.9292 39.5147 28.4266C40.6755 28.8827 41.857 29.1107 43.0593 29.1107C44.8419 29.1107 46.3551 28.6754 47.5988 27.8048C48.884 26.9342 49.8997 25.9599 50.6459 24.8821C51.3922 23.7627 51.8482 22.8507 52.014 22.1459C52.1798 21.4826 52.4286 21.1509 52.7602 21.1509C53.2577 21.1509 53.465 21.4411 53.3821 22.0215C53.1334 23.8456 52.4908 25.421 51.4543 26.7476C50.4179 28.0743 49.1535 29.09 47.661 29.7947C46.1686 30.458 44.5932 30.7897 42.9349 30.7897C41.2352 30.7897 39.5976 30.3751 38.0223 29.546C36.4469 28.7168 35.1617 27.5146 34.1668 25.9392C33.1718 24.3638 32.6743 22.4568 32.6743 20.2181C32.6743 18.394 33.0681 16.5907 33.8558 14.808C34.685 12.9839 35.908 11.3256 37.5248 9.83315C39.1831 8.29924 41.2766 7.07626 43.8055 6.16421C46.3344 5.25215 49.3193 4.79613 52.7602 4.79613C55.2062 4.79613 57.7144 5.08632 60.2847 5.66672C62.855 6.20567 65.4461 6.91043 68.0579 7.78103C70.7111 8.61017 73.3229 9.48077 75.8933 10.3928C76.7639 9.27349 77.593 8.42362 78.3807 7.84322C79.1684 7.22136 79.9561 6.91043 80.7437 6.91043C81.0754 6.91043 81.3034 6.99335 81.4278 7.15918C81.5522 7.28355 81.6143 7.40792 81.6143 7.53229C81.6143 7.69812 81.5522 7.88467 81.4278 8.09196C81.3034 8.29924 81.0754 8.40289 80.7437 8.40289C79.3757 8.40289 78.0905 9.16984 76.8882 10.7038C79.8731 11.6987 82.7337 12.5901 85.4698 13.3777C88.2475 14.124 90.8178 14.4971 93.1809 14.4971C95.005 14.4971 96.2072 14.3105 96.7876 13.9374C97.368 13.5228 97.6582 12.9632 97.6582 12.2584C97.6582 11.8024 97.8033 11.5744 98.0935 11.5744C98.3008 11.5744 98.4874 11.7195 98.6532 12.0097C98.8605 12.2584 98.9641 12.5693 98.9641 12.9424C98.9641 13.9374 98.4044 14.7458 97.2851 15.3677C96.2072 15.9895 94.694 16.3005 92.7456 16.3005C90.1752 16.3005 87.5012 15.8859 84.7236 15.0567C81.946 14.1861 79.0025 13.2326 75.8933 12.1962C74.7739 14.0618 73.6753 16.5077 72.5974 19.5341C71.5196 22.519 70.2551 25.8978 68.8041 29.6704C70.5868 29.8362 72.4731 29.9813 74.463 30.1056C76.4529 30.1886 78.0698 30.23 79.3135 30.23C79.728 30.23 79.9353 30.3544 79.9353 30.6031C79.9353 30.9348 79.4586 31.225 78.5051 31.4737C77.8832 31.6396 76.8261 31.7639 75.3336 31.8468C73.8826 31.9298 72.3694 31.9712 70.7941 31.9712C70.4624 31.9712 70.0478 31.9712 69.5503 31.9712C69.0529 31.9298 68.5139 31.909 67.9335 31.909C67.5604 32.8625 67.1666 33.8368 66.752 34.8318C66.3789 35.7853 65.9643 36.7802 65.5083 37.8167C63.7671 41.9209 61.632 45.2582 59.1032 47.8285C56.6157 50.3574 53.9418 52.3059 51.0812 53.674C48.2622 55.0835 45.4431 56.037 42.624 56.5345C39.8464 57.032 37.2968 57.2807 34.9752 57.2807ZM77.274 38.8116C77.6056 38.1069 78.0409 36.9875 78.5799 35.4536C79.1188 33.8782 79.6785 32.137 80.2589 30.23C80.8393 28.323 81.2746 26.5196 81.5648 24.8199C81.6892 24.1566 81.9172 23.6798 82.2488 23.3896C82.5805 23.058 82.9329 22.8921 83.306 22.8921C83.8449 22.8921 84.3424 23.1616 84.7984 23.7005C85.2545 24.198 85.4825 24.9235 85.4825 25.877C85.4825 27.0378 85.1301 28.0328 84.4253 28.8619C83.762 29.6911 82.9329 30.4788 81.9379 31.225C82.3525 31.2664 82.7878 31.3079 83.2438 31.3494C83.6998 31.3494 84.1973 31.3494 84.7363 31.3494C86.6847 31.3494 88.6125 31.225 90.5195 30.9762C90.6024 31.225 90.6439 31.4115 90.6439 31.5359C90.6439 32.0749 90.4781 32.7589 90.1464 33.588C89.8562 34.4172 89.5453 35.1634 89.2136 35.8267C89.0478 36.1998 88.7161 36.8839 88.2186 37.8788C87.7212 38.8324 87.1822 39.931 86.6018 41.1747C86.0214 42.3769 85.5239 43.5792 85.1094 44.7814C84.7363 45.9422 84.5497 46.9372 84.5497 47.7664C84.5497 48.8442 84.9643 49.3832 85.7934 49.3832C86.5811 49.3832 87.6797 48.4711 89.0892 46.647C90.4988 44.7814 91.9083 42.2318 93.3179 38.9982C93.8153 38.9982 94.0641 39.1847 94.0641 39.5579C93.6081 40.6772 93.0277 41.9002 92.3229 43.2268C91.6596 44.5534 90.9134 45.8179 90.0842 47.0201C89.2551 48.1809 88.3637 49.1552 87.4102 49.9428C86.4567 50.6891 85.4618 51.0622 84.4253 51.0622C83.6376 51.0622 82.85 50.7513 82.0623 50.1294C81.2746 49.4661 80.8807 48.4089 80.8807 46.9579C80.8807 45.6728 81.1295 44.4291 81.627 43.2268C82.1245 41.9831 82.6841 40.8223 83.306 39.7444C83.9278 38.6665 84.4875 37.713 84.985 36.8839C85.4825 36.0547 85.7312 35.3914 85.7312 34.8939C85.7312 34.1477 85.2545 33.6088 84.301 33.2771C83.3889 32.9455 82.1866 32.7589 80.6942 32.7174C79.948 34.6245 79.3883 36.034 79.0152 36.9461C78.6421 37.8581 78.2897 38.7287 77.958 39.5579C77.2947 39.5579 77.0667 39.3091 77.274 38.8116ZM95.4812 51C93.7815 51 92.5171 50.3989 91.6879 49.1966C90.9002 47.9529 90.5064 46.4605 90.5064 44.7193C90.5064 43.1024 90.8173 41.4234 91.4392 39.6822C92.1025 37.7752 93.0145 36.034 94.1753 34.4586C95.3776 32.8833 96.6835 31.6188 98.093 30.6653C99.544 29.6704 100.974 29.1729 102.384 29.1729C104.084 29.1729 105.327 29.7533 106.115 30.9141C106.944 32.0749 107.359 33.5466 107.359 35.3292C107.359 36.5729 107.151 37.8788 106.737 39.2469C106.322 40.615 105.763 41.9624 105.058 43.289C105.597 43.8279 106.364 44.0974 107.359 44.0974C108.519 44.0974 109.514 43.7243 110.344 42.9781C111.173 42.2318 111.981 40.9052 112.769 38.9982C113.266 38.9982 113.515 39.1847 113.515 39.5579C112.727 41.4649 111.815 42.8744 110.779 43.7865C109.784 44.6571 108.499 45.0716 106.923 45.0302C105.97 45.0302 105.182 44.7607 104.56 44.2218C103.4 46.1288 102.011 47.7456 100.394 49.0722C98.8185 50.3574 97.181 51 95.4812 51ZM96.3518 49.6319C97.3053 49.6319 98.2589 49.2381 99.2124 48.4504C100.166 47.6213 101.036 46.6885 101.824 45.652C102.612 44.6156 103.172 43.7243 103.503 42.9781C102.84 41.7758 102.446 40.8845 102.322 40.3041C102.239 39.6822 102.197 39.2262 102.197 38.936C102.197 38.1483 102.405 37.5472 102.819 37.1326C103.234 36.718 103.648 36.5108 104.063 36.5108C104.643 36.5108 105.141 36.7595 105.555 37.257C105.638 36.801 105.7 36.3864 105.742 36.0133C105.783 35.5987 105.804 35.2049 105.804 34.8318C105.804 33.7539 105.597 32.8833 105.182 32.22C104.809 31.5152 104.208 31.1628 103.379 31.1628C102.508 31.1628 101.596 31.5359 100.643 32.2821C99.6891 33.0284 98.7771 34.0233 97.9065 35.2671C97.0773 36.5108 96.3518 37.8996 95.73 39.4335C95.191 40.7187 94.7765 41.9416 94.4863 43.1024C94.1961 44.2218 94.051 45.2582 94.051 46.2117C94.051 47.2481 94.2375 48.0773 94.6106 48.6991C94.9838 49.321 95.5642 49.6319 96.3518 49.6319ZM105.175 51.3109C106.709 48.3675 108.16 45.424 109.528 42.4806C110.896 39.4957 112.285 36.6766 113.695 34.0233C114.524 32.5309 115.208 31.4945 115.747 30.9141C116.327 30.2922 117.094 29.9813 118.048 29.9813C118.379 29.9813 118.732 30.0435 119.105 30.1678C119.478 30.2508 119.851 30.2922 120.224 30.2922C120.473 30.2922 120.66 30.2715 120.784 30.23C120.204 30.5617 119.457 31.3908 118.545 32.7174C117.633 34.0026 116.7 35.4951 115.747 37.1948C114.793 38.8945 113.944 40.4906 113.197 41.9831C113.985 41.0296 114.793 40.0761 115.623 39.1226C116.493 38.169 117.447 37.257 118.483 36.3864C119.395 35.5987 120.349 34.7488 121.344 33.8368C122.38 32.8833 123.396 32.0749 124.391 31.4115C125.386 30.7482 126.256 30.4166 127.003 30.4166C127.293 30.4166 127.479 30.4373 127.562 30.4788C128.35 30.8104 128.744 31.3494 128.744 32.0956C128.744 32.3443 128.64 32.7174 128.433 33.2149C127.894 34.6245 127.189 36.0755 126.318 37.5679C125.489 39.0189 124.702 40.4906 123.955 41.9831C124.577 41.2369 125.344 40.3248 126.256 39.2469C127.21 38.169 128.163 37.2155 129.117 36.3864C130.029 35.5573 131.19 34.6867 132.599 33.7746C134.009 32.8625 135.398 32.0749 136.766 31.4115C138.134 30.7482 139.232 30.4166 140.061 30.4166C140.352 30.4166 140.559 30.4373 140.683 30.4788C140.683 30.4788 140.455 30.8933 139.999 31.7225C139.543 32.5102 138.963 33.5673 138.258 34.8939C137.595 36.1791 136.911 37.5679 136.206 39.0604C135.501 40.5114 134.859 41.9209 134.278 43.289C133.739 44.6156 133.387 45.735 133.221 46.647C133.097 47.186 133.035 47.6834 133.035 48.1395C133.035 48.8028 133.159 49.2381 133.408 49.4454C133.656 49.6526 133.926 49.7563 134.216 49.7563C135.045 49.7563 135.854 49.4039 136.641 48.6991C137.47 47.9944 138.279 47.103 139.067 46.0252C139.854 44.9058 140.559 43.7243 141.181 42.4806C141.844 41.2369 142.404 40.0761 142.86 38.9982C143.357 38.9982 143.606 39.1847 143.606 39.5579C143.15 40.6772 142.57 41.9209 141.865 43.289C141.202 44.6156 140.435 45.8801 139.564 47.0823C138.693 48.2846 137.74 49.2795 136.703 50.0672C135.667 50.8549 134.548 51.2487 133.345 51.2487C132.475 51.2487 131.646 50.9585 130.858 50.3781C130.112 49.7977 129.739 48.7199 129.739 47.1445C129.739 45.4448 130.133 43.745 130.92 42.0453C131.749 40.3455 132.599 38.7909 133.47 37.3814C133.884 36.6766 134.092 36.1169 134.092 35.7024C134.092 35.2049 133.843 34.9561 133.345 34.9561C132.931 34.9561 132.35 35.1634 131.604 35.578C130.899 35.9926 130.008 36.718 128.93 37.7545C128.267 38.3763 127.479 39.2469 126.567 40.3663C125.697 41.4442 124.805 42.6257 123.893 43.9108C122.981 45.196 122.194 46.4605 121.53 47.7042C120.867 48.9479 120.432 50.0465 120.224 51C119.602 51 119.105 50.7513 118.732 50.2538C118.359 49.7148 118.172 49.093 118.172 48.3882C118.172 48.2638 118.172 48.1395 118.172 48.0151C118.172 47.8907 118.193 47.7456 118.234 47.5798C118.442 46.2946 118.773 45.2167 119.229 44.3461C119.685 43.4341 120.204 42.3769 120.784 41.1747C121.074 40.6357 121.406 40.0139 121.779 39.3091C122.152 38.5629 122.484 37.8581 122.774 37.1948C123.064 36.49 123.209 35.9096 123.209 35.4536C123.209 35.039 123.043 34.8318 122.712 34.8318C122.339 34.8318 121.841 35.0183 121.219 35.3914C120.639 35.7645 120.079 36.1998 119.54 36.6973C119.001 37.1533 118.587 37.5057 118.297 37.7545C117.26 38.7494 115.996 40.1797 114.503 42.0453C113.052 43.9108 111.456 46.5641 109.715 50.005C109.466 50.4611 109.176 50.7513 108.844 50.8756C108.513 50.9585 107.994 51 107.29 51C106.834 51 106.461 51 106.17 51C105.839 51.0415 105.507 51.1451 105.175 51.3109ZM165.849 61.7581C163.445 61.7581 161.061 61.4679 158.698 60.8875C156.376 60.3486 154.262 59.4365 152.355 58.1513C150.489 56.8662 148.997 55.125 147.877 52.9278C146.758 50.772 146.198 48.0773 146.198 44.8436C146.198 42.522 146.592 40.3455 147.38 38.3141C148.168 36.2827 149.204 34.6452 150.489 33.4015C151.774 32.1163 153.142 31.4737 154.593 31.4737C155.091 31.4737 155.34 31.5981 155.34 31.8468C155.34 32.0956 155.07 32.3029 154.531 32.4687C153.495 32.7174 152.479 33.36 151.484 34.3965C150.531 35.3914 149.743 36.718 149.121 38.3763C148.499 40.0346 148.188 42.0038 148.188 44.284C148.188 47.0201 148.686 49.2588 149.681 51C150.717 52.7412 152.044 54.1093 153.661 55.1042C155.278 56.0992 156.977 56.7833 158.76 57.1564C160.584 57.5709 162.304 57.7782 163.921 57.7782C168.482 57.7782 172.648 57.0527 176.421 55.6017C180.235 54.1922 183.655 52.223 186.681 49.6941C189.749 47.1652 192.402 44.2632 194.641 40.9881C196.921 37.6716 198.807 34.127 200.3 30.3544C200.341 30.23 200.383 30.1057 200.424 29.9813C199.761 30.0227 199.201 30.0849 198.745 30.1678C198.289 30.2508 197.854 30.3751 197.439 30.5409C196.527 30.8726 195.843 31.0384 195.387 31.0384C195.138 31.0384 195.014 30.8726 195.014 30.5409C195.014 29.9605 195.304 29.3594 195.885 28.7376C196.507 28.0743 197.253 27.7219 198.123 27.6804C198.455 27.6804 198.911 27.6804 199.491 27.6804C200.113 27.639 200.756 27.6182 201.419 27.6182C202.207 25.6283 203.057 23.5762 203.969 21.4619C204.881 19.3475 205.772 17.3369 206.643 15.4299C207.513 13.5228 208.28 11.8646 208.944 10.455C209.607 9.04547 210.084 8.0505 210.374 7.4701C208.094 7.71885 205.731 7.94686 203.285 8.15415C200.839 8.31997 198.434 8.61017 196.071 9.02474C193.708 9.39786 191.47 10.0197 189.355 10.8903C185.458 12.5071 182.618 14.6422 180.836 17.2954C179.095 19.9072 178.224 22.8299 178.224 26.0636C178.224 28.095 178.784 29.774 179.903 31.1006C181.022 32.4272 182.494 33.0906 184.318 33.0906C185.976 33.0906 187.427 32.5931 188.671 31.5981C189.915 30.5617 190.889 29.2765 191.594 27.7426C192.34 26.1672 192.713 24.6126 192.713 23.0787C192.713 22.5812 192.651 22.1459 192.527 21.7728C192.444 21.3582 192.361 21.068 192.278 20.9022C192.278 20.612 192.402 20.4669 192.651 20.4669C193.19 20.4669 193.542 20.8607 193.708 21.6484C193.915 22.3946 194.019 23.1409 194.019 23.8871C194.019 25.5454 193.563 27.1829 192.651 28.7998C191.78 30.4166 190.557 31.7639 188.982 32.8418C187.448 33.8782 185.707 34.3965 183.759 34.3965C182.017 34.3965 180.421 33.9612 178.97 33.0906C177.561 32.1785 176.421 30.9555 175.55 29.4216C174.679 27.8877 174.244 26.188 174.244 24.3224C174.244 21.6691 174.845 19.3268 176.047 17.2954C177.25 15.2226 178.887 13.4606 180.96 12.0097C183.074 10.5587 185.438 9.46004 188.049 8.71382C190.578 7.96759 193.19 7.44938 195.885 7.15918C198.621 6.86898 201.295 6.66169 203.907 6.53732C206.56 6.37149 208.985 6.18494 211.182 5.97765C211.597 5.23142 212.115 4.46447 212.737 3.67678C213.4 2.8891 214.126 2.22579 214.913 1.68685C215.701 1.10645 216.51 0.816249 217.339 0.816249C217.961 0.816249 218.5 0.982077 218.956 1.31373C219.412 1.60393 219.64 2.08069 219.64 2.744C219.64 3.73897 219.246 4.56811 218.458 5.23142C217.712 5.85328 216.758 6.33004 215.598 6.66169C214.437 6.99335 213.297 7.24209 212.177 7.40792C211.721 8.27852 211.182 9.5015 210.56 11.0769C209.939 12.6522 209.255 14.4142 208.508 16.3626C207.804 18.2697 207.078 20.2181 206.332 22.2081C205.627 24.1566 204.964 25.9807 204.342 27.6804C205.751 27.7633 207.389 27.867 209.255 27.9913C211.162 28.0743 213.11 28.1779 215.1 28.3023C217.09 28.3852 218.976 28.4681 220.759 28.551C222.583 28.6339 224.075 28.6754 225.236 28.6754C225.692 27.5146 226.169 26.3123 226.667 25.0686C229.237 18.8086 231.6 13.8752 233.756 10.2685C235.911 6.66169 237.632 4.65103 238.917 4.23646C240.575 3.69751 241.715 3.42804 242.337 3.42804C242.586 3.42804 242.71 3.4695 242.71 3.55242C242.71 3.67678 242.42 3.88407 241.84 4.17427C241.55 4.3401 240.948 5.0656 240.036 6.35076C239.166 7.63593 238.109 9.39786 236.865 11.6365C235.621 13.8338 234.315 16.3834 232.947 19.2854C231.579 22.1874 230.273 25.3381 229.03 28.7376C229.734 28.7376 230.439 28.7168 231.144 28.6754C231.89 28.6339 232.45 28.5925 232.823 28.551C233.279 28.4681 233.652 28.3645 233.942 28.2401C234.274 28.1157 234.523 28.0535 234.688 28.0535C234.896 28.0535 234.999 28.1572 234.999 28.3645C234.999 28.4888 234.834 28.6961 234.502 28.9863C233.797 29.4838 232.947 29.9191 231.952 30.2922C230.957 30.6653 229.714 30.8933 228.221 30.9762C227.268 33.7124 226.376 36.5315 225.547 39.4335C224.718 42.294 224.303 44.9473 224.303 47.3932C224.303 48.3053 224.469 49.1759 224.801 50.005C225.133 50.8342 225.754 51.2487 226.667 51.2487C227.744 51.2487 228.926 50.6683 230.211 49.5075C231.496 48.3053 232.761 46.7714 234.004 44.9058C235.248 43.0402 236.285 41.071 237.114 38.9982C237.611 38.9982 237.86 39.1847 237.86 39.5579C236.865 41.838 235.683 44.0559 234.315 46.2117C232.989 48.3675 231.517 50.1294 229.9 51.4975C228.325 52.907 226.667 53.6118 224.925 53.6118C223.557 53.6118 222.438 53.1143 221.567 52.1193C220.738 51.1244 220.324 49.6526 220.324 47.7042C220.324 45.7971 220.697 43.3719 221.443 40.4285C222.231 37.485 223.226 34.3343 224.428 30.9762C223.184 30.9348 221.65 30.8726 219.826 30.7897C218.002 30.7068 216.074 30.6239 214.043 30.5409C212.011 30.4166 210.063 30.3129 208.197 30.23C206.332 30.1471 204.777 30.0849 203.534 30.0435C203.368 30.5409 203.202 31.0177 203.036 31.4737C202.87 31.9298 202.725 32.3443 202.601 32.7174C201.357 36.3657 199.616 39.9102 197.377 43.3512C195.18 46.7921 192.527 49.9014 189.417 52.679C186.35 55.4566 182.826 57.6539 178.846 59.2707C174.907 60.929 170.575 61.7581 165.849 61.7581ZM213.359 5.85328C213.773 5.77037 214.126 5.68745 214.416 5.60454C214.748 5.52162 215.059 5.43871 215.349 5.3558C216.095 5.10705 216.613 4.81685 216.903 4.4852C217.235 4.15354 217.401 3.86334 217.401 3.6146C217.401 3.11711 217.111 2.86837 216.53 2.86837C216.24 2.86837 215.888 2.99274 215.473 3.24149C215.059 3.49023 214.644 3.9048 214.229 4.4852C214.064 4.73394 213.898 4.98268 213.732 5.23142C213.608 5.43871 213.483 5.646 213.359 5.85328ZM237.333 51C236.877 51 236.318 50.8964 235.654 50.6891C235.032 50.4818 234.473 50.1087 233.975 49.5697C233.519 48.9893 233.291 48.1395 233.291 47.0201C233.291 45.9422 233.644 44.6985 234.348 43.289C235.053 41.8795 235.675 40.6357 236.214 39.5579C235.758 39.5579 235.53 39.3713 235.53 38.9982C235.571 38.8738 235.758 38.48 236.09 37.8167C236.421 37.1533 236.815 36.3657 237.271 35.4536C237.727 34.5416 238.162 33.671 238.577 32.8418C239.033 31.9712 239.385 31.3079 239.634 30.8519C240.132 29.9398 240.919 29.4838 241.997 29.4838H245.853C245.148 30.0227 244.505 30.6239 243.925 31.2872C243.386 31.909 242.702 33.0698 241.873 34.7696C241.873 34.7696 241.728 35.0598 241.438 35.6402C241.147 36.2206 240.774 36.9668 240.318 37.8788C239.904 38.7494 239.468 39.6408 239.012 40.5528C238.598 41.4649 238.245 42.2318 237.955 42.8537C237.416 44.0145 237.064 44.9473 236.898 45.652C236.732 46.3154 236.649 46.9372 236.649 47.5176C236.649 48.8857 237.105 49.5697 238.017 49.5697C239.012 49.5697 240.215 48.7613 241.624 47.1445C242.785 45.7764 243.925 44.1389 245.044 42.2318C246.164 40.3248 247.221 38.3556 248.216 36.3242C249.252 34.2928 250.164 32.4687 250.952 30.8519C251.408 29.9398 252.216 29.4838 253.377 29.4838H256.797C255.885 30.23 254.953 31.3494 253.999 32.8418C253.087 34.3343 252.071 36.2413 250.952 38.5629C250.662 39.1847 250.289 39.9724 249.833 40.9259C249.377 41.8795 248.962 42.8951 248.589 43.973C248.257 45.0509 248.091 46.1288 248.091 47.2067C248.091 48.6577 248.61 49.3832 249.646 49.3832C251.056 49.3832 252.424 48.4089 253.75 46.4605C255.077 44.512 256.383 42.0246 257.668 38.9982C258 38.9982 258.186 39.0189 258.228 39.0604C258.311 39.1018 258.373 39.2677 258.414 39.5579C257.958 40.6772 257.399 41.9002 256.735 43.2268C256.113 44.512 255.388 45.7557 254.559 46.9579C253.771 48.1602 252.88 49.1344 251.885 49.8807C250.931 50.6269 249.874 51 248.713 51C247.677 51 246.827 50.6269 246.164 49.8807C245.5 49.093 245.169 47.9944 245.169 46.5848C245.169 45.4655 245.376 44.2632 245.791 42.9781C245.086 44.2218 244.277 45.4655 243.365 46.7092C242.453 47.9529 241.479 48.9893 240.443 49.8185C239.406 50.6062 238.37 51 237.333 51ZM250.109 51.3109C251.643 48.3675 253.094 45.424 254.462 42.4806C255.83 39.4957 257.219 36.6766 258.628 34.0233C259.458 32.5309 260.142 31.4945 260.681 30.9141C261.261 30.2922 262.028 29.9813 262.981 29.9813C263.313 29.9813 263.665 30.0435 264.039 30.1678C264.412 30.2508 264.785 30.2922 265.158 30.2922C265.407 30.2922 265.593 30.2715 265.718 30.23C265.137 30.5617 264.391 31.3908 263.479 32.7174C262.567 34.0026 261.634 35.4951 260.681 37.1948C259.727 38.8945 258.877 40.4906 258.131 41.9831C258.919 41.0296 259.727 40.0761 260.556 39.1226C261.427 38.169 262.38 37.257 263.417 36.3864C264.329 35.5987 265.282 34.7488 266.277 33.8368C267.314 32.8833 268.329 32.0749 269.324 31.4115C270.319 30.7482 271.19 30.4166 271.936 30.4166C272.226 30.4166 272.413 30.4373 272.496 30.4788C273.284 30.8104 273.677 31.3494 273.677 32.0956C273.677 32.3443 273.574 32.7174 273.366 33.2149C272.828 34.6245 272.123 36.0755 271.252 37.5679C270.423 39.0189 269.635 40.4906 268.889 41.9831C269.511 41.2369 270.278 40.3248 271.19 39.2469C272.143 38.169 273.097 37.2155 274.05 36.3864C274.963 35.5573 276.123 34.6867 277.533 33.7746C278.942 32.8625 280.331 32.0749 281.699 31.4115C283.067 30.7482 284.166 30.4166 284.995 30.4166C285.285 30.4166 285.493 30.4373 285.617 30.4788C285.617 30.4788 285.389 30.8933 284.933 31.7225C284.477 32.5102 283.897 33.5673 283.192 34.8939C282.528 36.1791 281.844 37.5679 281.14 39.0604C280.435 40.5114 279.792 41.9209 279.212 43.289C278.673 44.6156 278.321 45.735 278.155 46.647C278.03 47.186 277.968 47.6834 277.968 48.1395C277.968 48.8028 278.093 49.2381 278.341 49.4454C278.59 49.6526 278.859 49.7563 279.15 49.7563C279.979 49.7563 280.787 49.4039 281.575 48.6991C282.404 47.9944 283.212 47.103 284 46.0252C284.788 44.9058 285.493 43.7243 286.114 42.4806C286.778 41.2369 287.337 40.0761 287.793 38.9982C288.291 38.9982 288.54 39.1847 288.54 39.5579C288.084 40.6772 287.503 41.9209 286.799 43.289C286.135 44.6156 285.368 45.8801 284.498 47.0823C283.627 48.2846 282.674 49.2795 281.637 50.0672C280.601 50.8549 279.481 51.2487 278.279 51.2487C277.409 51.2487 276.579 50.9585 275.792 50.3781C275.045 49.7977 274.672 48.7199 274.672 47.1445C274.672 45.4448 275.066 43.745 275.854 42.0453C276.683 40.3455 277.533 38.7909 278.403 37.3814C278.818 36.6766 279.025 36.1169 279.025 35.7024C279.025 35.2049 278.777 34.9561 278.279 34.9561C277.865 34.9561 277.284 35.1634 276.538 35.578C275.833 35.9926 274.942 36.718 273.864 37.7545C273.201 38.3763 272.413 39.2469 271.501 40.3663C270.63 41.4442 269.739 42.6257 268.827 43.9108C267.915 45.196 267.127 46.4605 266.464 47.7042C265.801 48.9479 265.365 50.0465 265.158 51C264.536 51 264.039 50.7513 263.665 50.2538C263.292 49.7148 263.106 49.093 263.106 48.3882C263.106 48.2638 263.106 48.1395 263.106 48.0151C263.106 47.8907 263.127 47.7456 263.168 47.5798C263.375 46.2946 263.707 45.2167 264.163 44.3461C264.619 43.4341 265.137 42.3769 265.718 41.1747C266.008 40.6357 266.339 40.0139 266.713 39.3091C267.086 38.5629 267.417 37.8581 267.708 37.1948C267.998 36.49 268.143 35.9096 268.143 35.4536C268.143 35.039 267.977 34.8318 267.645 34.8318C267.272 34.8318 266.775 35.0183 266.153 35.3914C265.573 35.7645 265.013 36.1998 264.474 36.6973C263.935 37.1533 263.52 37.5057 263.23 37.7545C262.194 38.7494 260.929 40.1797 259.437 42.0453C257.986 43.9108 256.39 46.5641 254.649 50.005C254.4 50.4611 254.11 50.7513 253.778 50.8756C253.446 50.9585 252.928 51 252.223 51C251.767 51 251.394 51 251.104 51C250.772 51.0415 250.441 51.1451 250.109 51.3109ZM299.72 51.1866C298.766 51.1866 297.917 50.9171 297.17 50.3781C296.466 49.8392 296.113 48.7406 296.113 47.0823C296.113 46.3775 296.155 45.7142 296.238 45.0924C296.362 44.4705 296.507 43.8072 296.673 43.1024C296.3 43.7243 295.782 44.4912 295.118 45.4033C294.455 46.3154 293.709 47.2067 292.88 48.0773C292.092 48.9479 291.263 49.6734 290.392 50.2538C289.563 50.8342 288.775 51.1244 288.029 51.1244C286.951 51.1244 286.081 50.6476 285.417 49.6941C284.754 48.6991 284.422 47.414 284.422 45.8386C284.422 44.1389 284.816 42.3147 285.604 40.3663C286.392 38.4178 287.469 36.5522 288.838 34.7696C290.206 32.9869 291.781 31.5359 293.564 30.4166C295.346 29.2972 297.212 28.7376 299.16 28.7376C300.114 28.7376 301.026 28.9034 301.897 29.2351C302.767 29.5253 303.534 30.0227 304.197 30.7275C304.488 31.0177 304.633 31.3494 304.633 31.7225C304.633 31.9712 304.529 32.1785 304.322 32.3443C304.114 32.5102 303.845 32.5516 303.513 32.4687C303.057 31.0177 302.083 30.2922 300.591 30.2922C299.886 30.2922 299.077 30.5202 298.165 30.9762C297.046 31.5566 295.844 32.4894 294.559 33.7746C293.315 35.0183 292.133 36.4486 291.014 38.0654C289.936 39.6408 289.045 41.2369 288.34 42.8537C287.635 44.4705 287.283 45.9422 287.283 47.2689C287.283 48.6369 287.801 49.321 288.838 49.321C289.75 49.321 290.682 48.8857 291.636 48.0151C292.631 47.1445 293.564 46.0666 294.434 44.7814C295.346 43.4548 296.175 42.1489 296.922 40.8638C297.668 39.5786 298.248 38.5422 298.663 37.7545C299.285 36.6351 299.865 35.7024 300.404 34.9561C300.943 34.2099 301.71 33.8368 302.705 33.8368C303.161 33.8368 303.617 33.899 304.073 34.0233C304.529 34.1477 305.006 34.1684 305.503 34.0855C304.26 35.3292 303.161 36.801 302.207 38.5007C301.295 40.2004 300.591 41.8795 300.093 43.5377C299.596 45.1546 299.347 46.5226 299.347 47.642C299.347 48.8857 299.761 49.5075 300.591 49.5075C301.254 49.5075 301.959 49.1344 302.705 48.3882C303.493 47.642 304.239 46.7092 304.944 45.5899C305.69 44.4291 306.374 43.2683 306.996 42.1075C307.618 40.9052 308.115 39.8688 308.488 38.9982C308.695 38.9982 308.861 39.0189 308.986 39.0604C309.151 39.1018 309.234 39.2677 309.234 39.5579C309.193 39.7237 309.11 39.9102 308.986 40.1175C308.903 40.2834 308.758 40.5943 308.55 41.0503C308.219 41.7136 307.763 42.6049 307.182 43.7243C306.602 44.8436 305.918 45.9837 305.13 47.1445C304.342 48.2638 303.493 49.2173 302.581 50.005C301.668 50.7927 300.715 51.1866 299.72 51.1866ZM300.989 51.4975C302.481 48.4711 303.911 45.4862 305.279 42.5428C306.647 39.5579 308.057 36.718 309.508 34.0233C310.337 32.5309 311.042 31.4945 311.622 30.9141C312.203 30.2922 312.97 29.9813 313.923 29.9813C314.255 29.9813 314.607 30.0435 314.98 30.1678C315.353 30.2508 315.726 30.2922 316.1 30.2922C316.348 30.2922 316.535 30.2715 316.659 30.23C316.079 30.5617 315.312 31.3908 314.358 32.7174C313.446 34.0026 312.514 35.4951 311.56 37.1948C310.607 38.8945 309.757 40.4906 309.01 41.9831C309.798 41.0296 310.627 40.0761 311.498 39.1226C312.368 38.169 313.322 37.257 314.358 36.3864C315.353 35.5158 316.535 34.6245 317.903 33.7124C319.313 32.7589 320.681 31.9712 322.007 31.3494C323.334 30.7275 324.391 30.4166 325.179 30.4166C325.469 30.4166 325.676 30.4373 325.801 30.4788C325.801 30.4788 325.573 30.8933 325.117 31.7225C324.66 32.5102 324.08 33.5673 323.375 34.8939C322.712 36.1791 322.028 37.5679 321.323 39.0604C320.618 40.5114 319.976 41.9209 319.395 43.289C318.856 44.6156 318.504 45.735 318.338 46.647C318.214 47.186 318.152 47.6834 318.152 48.1395C318.152 48.8028 318.276 49.2381 318.525 49.4454C318.774 49.6526 319.043 49.7563 319.333 49.7563C320.121 49.7563 320.929 49.4039 321.758 48.6991C322.588 47.9944 323.375 47.103 324.122 46.0252C324.909 44.9058 325.635 43.7243 326.298 42.4806C326.961 41.2369 327.521 40.0761 327.977 38.9982C328.475 38.9982 328.723 39.1847 328.723 39.5579C328.267 40.6772 327.687 41.9209 326.982 43.289C326.319 44.6156 325.552 45.8801 324.681 47.0823C323.852 48.2846 322.919 49.2795 321.883 50.0672C320.846 50.8549 319.727 51.2487 318.525 51.2487C317.696 51.2487 316.825 50.9585 315.913 50.3781C315.042 49.7977 314.607 48.7199 314.607 47.1445C314.607 46.6885 314.649 46.2117 314.732 45.7142C314.814 45.1753 314.96 44.5949 315.167 43.973C315.498 43.1439 315.892 42.2526 316.348 41.2991C316.804 40.3455 317.551 39.0396 318.587 37.3814C318.877 36.9253 319.043 36.5729 319.085 36.3242C319.167 36.0755 319.209 35.8682 319.209 35.7024C319.209 35.2049 318.981 34.9561 318.525 34.9561C318.152 34.9561 317.592 35.1634 316.846 35.578C316.141 35.9926 315.25 36.718 314.172 37.7545C313.135 38.7494 311.892 40.159 310.441 41.9831C309.031 43.8072 307.394 46.5019 305.528 50.0672C305.238 50.6062 304.906 50.8964 304.533 50.9378C304.201 50.9793 303.725 51.0207 303.103 51.0622C302.688 51.1036 302.294 51.1244 301.921 51.1244C301.548 51.1658 301.237 51.2902 300.989 51.4975Z" fill="#FC5101"/>
<path d="M953.694 320.025C953.155 320.813 952.554 321.808 951.891 323.01C951.227 324.213 950.606 325.373 950.025 326.493C949.486 327.612 949.072 328.462 948.782 329.042H954.503C954.503 329.208 954.42 329.478 954.254 329.851C954.129 330.224 953.86 330.493 953.445 330.659H948.035C947.538 331.778 946.957 333.126 946.294 334.701C945.672 336.277 945.05 337.914 944.429 339.614C943.848 341.314 943.351 342.91 942.936 344.402C942.563 345.853 942.376 347.035 942.376 347.947C942.376 349.19 942.542 350.123 942.874 350.745C943.206 351.325 943.807 351.616 944.677 351.616C945.797 351.616 946.875 351.077 947.911 349.999C948.947 348.879 949.922 347.491 950.834 345.832C951.787 344.174 952.616 342.516 953.321 340.858C953.819 340.858 954.067 341.044 954.067 341.417C953.611 342.537 953.052 343.76 952.388 345.086C951.725 346.413 950.958 347.698 950.087 348.942C949.258 350.144 948.305 351.139 947.227 351.927C946.19 352.673 945.03 353.046 943.745 353.046C942.003 353.046 940.822 352.569 940.2 351.616C939.578 350.621 939.267 349.356 939.267 347.822C939.267 346.703 939.474 345.356 939.889 343.78C940.304 342.163 940.801 340.505 941.381 338.805C942.003 337.106 942.604 335.53 943.185 334.079C943.765 332.587 944.221 331.447 944.553 330.659H940.573C940.573 330.327 940.718 329.975 941.008 329.602C941.299 329.229 941.609 329.042 941.941 329.042H945.237C945.569 328.379 945.942 327.55 946.356 326.555C946.812 325.56 947.413 324.461 948.16 323.259C948.782 322.264 949.569 321.476 950.523 320.896C951.518 320.316 952.575 320.025 953.694 320.025ZM955.508 352.859C953.809 352.859 952.544 352.258 951.715 351.056C950.927 349.812 950.533 348.32 950.533 346.579C950.533 344.962 950.844 343.283 951.466 341.542C952.13 339.635 953.042 337.893 954.202 336.318C955.405 334.743 956.711 333.478 958.12 332.525C959.571 331.53 961.001 331.032 962.411 331.032C964.111 331.032 965.354 331.613 966.142 332.773C966.971 333.934 967.386 335.406 967.386 337.189C967.386 338.432 967.178 339.738 966.764 341.106C966.349 342.474 965.79 343.822 965.085 345.148C965.624 345.687 966.391 345.957 967.386 345.957C968.547 345.957 969.541 345.584 970.371 344.837C971.2 344.091 972.008 342.765 972.796 340.858C973.293 340.858 973.542 341.044 973.542 341.417C972.754 343.324 971.842 344.734 970.806 345.646C969.811 346.516 968.526 346.931 966.95 346.89C965.997 346.89 965.209 346.62 964.587 346.081C963.427 347.988 962.038 349.605 960.421 350.932C958.846 352.217 957.208 352.859 955.508 352.859ZM956.379 351.491C957.332 351.491 958.286 351.097 959.239 350.31C960.193 349.481 961.064 348.548 961.851 347.511C962.639 346.475 963.199 345.584 963.53 344.837C962.867 343.635 962.473 342.744 962.349 342.163C962.266 341.542 962.224 341.086 962.224 340.795C962.224 340.008 962.432 339.407 962.846 338.992C963.261 338.577 963.675 338.37 964.09 338.37C964.67 338.37 965.168 338.619 965.582 339.116C965.665 338.66 965.727 338.246 965.769 337.873C965.81 337.458 965.831 337.064 965.831 336.691C965.831 335.613 965.624 334.743 965.209 334.079C964.836 333.375 964.235 333.022 963.406 333.022C962.535 333.022 961.623 333.395 960.67 334.142C959.716 334.888 958.804 335.883 957.933 337.126C957.104 338.37 956.379 339.759 955.757 341.293C955.218 342.578 954.803 343.801 954.513 344.962C954.223 346.081 954.078 347.118 954.078 348.071C954.078 349.108 954.265 349.937 954.638 350.559C955.011 351.18 955.591 351.491 956.379 351.491ZM1032.73 357.772C1031.57 357.565 1030.66 357.026 1029.99 356.155C1029.33 355.326 1028.85 354.269 1028.56 352.984C1028.31 351.74 1028.19 350.434 1028.19 349.066C1028.19 347.657 1028.27 346.268 1028.44 344.9C1028.65 343.532 1028.85 342.329 1029.06 341.293C1028.44 342.288 1027.84 343.2 1027.26 344.029C1026.72 344.817 1026.03 345.749 1025.21 346.827C1022.97 349.688 1020.75 351.802 1018.55 353.17C1016.4 354.58 1014.41 355.285 1012.58 355.285C1010.88 355.285 1009.47 354.642 1008.35 353.357C1007.23 352.113 1006.67 350.289 1006.67 347.885C1006.67 346.143 1006.98 344.216 1007.61 342.101C1008.23 339.946 1009 337.707 1009.91 335.385C1010.86 333.064 1011.86 330.763 1012.89 328.483C1013.97 326.161 1014.94 323.943 1015.82 321.829C1016.69 319.714 1017.35 317.787 1017.81 316.046C1018.14 314.76 1018.39 313.517 1018.55 312.314C1018.76 311.071 1018.86 309.868 1018.86 308.708C1018.86 307.257 1018.68 306.013 1018.3 304.976C1017.93 303.899 1017.33 303.111 1016.5 302.613C1015.59 302.033 1014.57 301.618 1013.45 301.37C1012.33 301.121 1011.17 300.997 1009.97 300.997C1007.69 300.997 1005.31 301.39 1002.82 302.178C1000.37 302.966 997.968 304.044 995.605 305.412C991.708 307.692 988.536 310.242 986.09 313.061C983.644 315.88 981.841 318.761 980.68 321.704C979.561 324.606 979.001 327.363 979.001 329.975C979.001 332.297 979.416 334.39 980.245 336.256C981.074 338.121 982.256 339.593 983.79 340.671C985.323 341.749 987.127 342.288 989.2 342.288C990.775 342.288 992.413 341.956 994.112 341.293C995.439 340.795 996.683 340.008 997.844 338.93C999.004 337.852 1000.02 336.629 1000.89 335.261C1001.8 333.893 1002.51 332.483 1003 331.032C1003.54 329.581 1003.81 328.234 1003.81 326.99C1003.81 325.705 1003.48 324.648 1002.82 323.819C1002.16 322.99 1001.06 322.575 999.523 322.575C999.191 322.575 998.838 322.596 998.465 322.637C998.092 322.679 997.698 322.741 997.284 322.824C996.994 322.865 996.724 322.927 996.475 323.01C996.268 323.052 996.102 323.072 995.978 323.072C995.771 323.072 995.667 323.01 995.667 322.886C995.667 322.72 995.854 322.513 996.227 322.264C996.6 321.974 996.869 321.808 997.035 321.767C997.781 321.435 998.465 321.207 999.087 321.083C999.751 320.958 1000.35 320.896 1000.89 320.896C1002.51 320.896 1003.69 321.435 1004.44 322.513C1005.22 323.591 1005.62 324.959 1005.62 326.617C1005.62 328.4 1005.18 330.348 1004.31 332.463C1003.44 334.535 1002.13 336.484 1000.39 338.308C998.693 340.132 996.579 341.583 994.05 342.661C992.019 343.532 990.05 343.967 988.143 343.967C985.821 343.967 983.769 343.366 981.986 342.163C980.204 340.92 978.815 339.241 977.82 337.126C976.866 335.012 976.389 332.649 976.389 330.037C976.389 327.094 977.053 324.047 978.379 320.896C979.748 317.704 981.841 314.615 984.66 311.63C987.521 308.604 991.21 305.847 995.729 303.36C998.217 301.992 1000.62 300.976 1002.94 300.313C1005.31 299.649 1007.52 299.318 1009.6 299.318C1010.72 299.318 1011.84 299.421 1012.95 299.629C1014.12 299.836 1015.19 300.167 1016.19 300.624C1018.39 301.536 1019.92 302.904 1020.79 304.728C1021.7 306.552 1022.16 308.563 1022.16 310.76C1022.16 312.459 1021.93 314.325 1021.47 316.356C1021.06 318.263 1020.4 320.295 1019.48 322.451C1018.61 324.606 1017.64 326.824 1016.56 329.104C1015.52 331.385 1014.51 333.665 1013.51 335.945C1012.56 338.225 1011.77 340.422 1011.15 342.537C1010.53 344.651 1010.22 346.62 1010.22 348.444C1010.22 350.144 1010.53 351.45 1011.15 352.362C1011.81 353.232 1012.66 353.668 1013.7 353.668C1015.03 353.668 1016.6 352.963 1018.43 351.553C1020.29 350.144 1022.24 347.988 1024.27 345.086C1025.68 343.055 1027.01 340.837 1028.25 338.432C1029.54 336.028 1030.72 333.706 1031.8 331.468C1032.92 329.187 1033.91 327.239 1034.78 325.622C1035.49 324.42 1036.11 323.57 1036.65 323.072C1037.23 322.575 1037.79 322.326 1038.33 322.326C1038.74 322.326 1039.03 322.534 1039.2 322.948C1039.36 323.363 1039.45 323.777 1039.45 324.192C1039.45 324.855 1039.24 325.622 1038.82 326.493C1038.45 327.363 1037.99 328.275 1037.46 329.229C1036.92 330.141 1036.44 331.074 1036.03 332.027C1035.61 332.898 1035.03 334.266 1034.28 336.131C1033.54 337.956 1032.87 339.946 1032.29 342.101C1031.88 343.76 1031.51 345.439 1031.17 347.138C1030.88 348.838 1030.74 350.372 1030.74 351.74C1030.74 353.108 1030.91 354.207 1031.24 355.036C1031.61 355.906 1032.19 356.342 1032.98 356.342H1033.66C1034.45 356.342 1034.84 356.508 1034.84 356.839C1034.84 357.088 1034.64 357.316 1034.22 357.523C1033.81 357.772 1033.31 357.855 1032.73 357.772ZM1032.72 353.357C1034.21 350.33 1035.64 347.346 1037.01 344.402C1038.38 341.417 1039.79 338.577 1041.24 335.883C1042.07 334.39 1042.77 333.354 1043.36 332.773C1043.94 332.152 1044.7 331.841 1045.66 331.841C1045.99 331.841 1046.34 331.903 1046.71 332.027C1047.09 332.11 1047.46 332.152 1047.83 332.152C1048.08 332.152 1048.27 332.131 1048.39 332.089C1047.81 332.421 1047.04 333.25 1046.09 334.577C1045.18 335.862 1044.25 337.354 1043.29 339.054C1042.34 340.754 1041.49 342.35 1040.74 343.842C1041.53 342.889 1042.36 341.935 1043.23 340.982C1044.1 340.028 1045.05 339.116 1046.09 338.246C1047.09 337.375 1048.27 336.484 1049.64 335.572C1051.05 334.618 1052.41 333.831 1053.74 333.209C1055.07 332.587 1056.12 332.276 1056.91 332.276C1057.2 332.276 1057.41 332.297 1057.53 332.338C1057.53 332.338 1057.31 332.753 1056.85 333.582C1056.39 334.37 1055.81 335.427 1055.11 336.753C1054.44 338.038 1053.76 339.427 1053.06 340.92C1052.35 342.371 1051.71 343.78 1051.13 345.148C1050.59 346.475 1050.24 347.594 1050.07 348.506C1049.95 349.045 1049.88 349.543 1049.88 349.999C1049.88 350.662 1050.01 351.097 1050.26 351.305C1050.51 351.512 1050.78 351.616 1051.07 351.616C1051.85 351.616 1052.66 351.263 1053.49 350.559C1054.32 349.854 1055.11 348.962 1055.85 347.885C1056.64 346.765 1057.37 345.584 1058.03 344.34C1058.69 343.096 1059.25 341.935 1059.71 340.858C1060.21 340.858 1060.46 341.044 1060.46 341.417C1060 342.537 1059.42 343.78 1058.71 345.148C1058.05 346.475 1057.28 347.739 1056.41 348.942C1055.58 350.144 1054.65 351.139 1053.62 351.927C1052.58 352.714 1051.46 353.108 1050.26 353.108C1049.43 353.108 1048.56 352.818 1047.65 352.238C1046.78 351.657 1046.34 350.579 1046.34 349.004C1046.34 348.548 1046.38 348.071 1046.46 347.574C1046.55 347.035 1046.69 346.454 1046.9 345.832C1047.23 345.003 1047.63 344.112 1048.08 343.158C1048.54 342.205 1049.28 340.899 1050.32 339.241C1050.61 338.785 1050.78 338.432 1050.82 338.184C1050.9 337.935 1050.94 337.728 1050.94 337.562C1050.94 337.064 1050.71 336.815 1050.26 336.815C1049.88 336.815 1049.32 337.023 1048.58 337.437C1047.87 337.852 1046.98 338.577 1045.9 339.614C1044.87 340.609 1043.62 342.018 1042.17 343.842C1040.76 345.667 1039.13 348.361 1037.26 351.927C1036.97 352.466 1036.64 352.756 1036.27 352.797C1035.93 352.839 1035.46 352.88 1034.84 352.922C1034.42 352.963 1034.03 352.984 1033.65 352.984C1033.28 353.025 1032.97 353.15 1032.72 353.357ZM1059.89 352.859C1058.36 352.859 1057.28 352.424 1056.66 351.553C1056.03 350.641 1055.72 349.605 1055.72 348.444C1055.72 347.822 1055.79 347.2 1055.91 346.579C1056.08 345.915 1056.26 345.314 1056.47 344.775L1060.64 334.142C1060.76 333.81 1060.82 333.52 1060.82 333.271C1060.82 332.856 1060.72 332.504 1060.51 332.214C1060.3 331.882 1060.16 331.654 1060.08 331.53L1063.5 331.405C1064.12 331.364 1064.55 331.447 1064.8 331.654C1065.09 331.82 1065.24 332.027 1065.24 332.276C1065.24 332.525 1065.09 332.981 1064.8 333.644C1064.39 334.639 1063.83 335.883 1063.12 337.375C1062.42 338.868 1061.71 340.402 1061.01 341.977C1060.35 343.552 1059.77 345.024 1059.27 346.392C1058.81 347.76 1058.58 348.817 1058.58 349.564C1058.58 350.102 1058.71 350.559 1058.96 350.932C1059.25 351.305 1059.72 351.491 1060.39 351.491C1061.26 351.491 1062.11 351.16 1062.94 350.496C1063.81 349.792 1064.62 348.9 1065.36 347.822C1066.11 346.744 1066.79 345.584 1067.41 344.34C1068.08 343.096 1068.64 341.935 1069.09 340.858C1069.59 340.858 1069.84 341.044 1069.84 341.417C1069.42 342.454 1068.89 343.635 1068.22 344.962C1067.56 346.288 1066.79 347.553 1065.92 348.755C1065.09 349.916 1064.16 350.89 1063.12 351.678C1062.13 352.466 1061.05 352.859 1059.89 352.859ZM1065.42 327.55C1064.89 327.55 1064.41 327.343 1063.99 326.928C1063.62 326.513 1063.43 326.016 1063.43 325.436C1063.43 324.731 1063.72 324.109 1064.3 323.57C1064.89 322.99 1065.53 322.699 1066.23 322.699C1066.81 322.699 1067.31 322.886 1067.73 323.259C1068.14 323.632 1068.35 324.109 1068.35 324.689C1068.35 325.436 1068.06 326.099 1067.48 326.679C1066.9 327.26 1066.21 327.55 1065.42 327.55ZM1069.58 353.295C1068.29 353.295 1067.4 352.963 1066.9 352.3C1066.41 351.636 1066.16 350.787 1066.16 349.75C1066.16 348.672 1066.34 347.449 1066.72 346.081C1067.09 344.713 1067.59 343.179 1068.21 341.479C1067.75 341.479 1067.52 341.272 1067.52 340.858C1067.86 340.028 1068.21 339.096 1068.58 338.059C1069 336.981 1069.2 335.779 1069.2 334.452C1069.2 333.789 1069.12 333.229 1068.96 332.773C1068.79 332.317 1068.54 332.048 1068.21 331.965C1068.21 331.965 1068.42 331.924 1068.83 331.841C1069.29 331.758 1069.76 331.675 1070.26 331.592C1070.76 331.509 1071.09 331.468 1071.26 331.468C1071.5 331.426 1071.73 331.405 1071.94 331.405C1072.15 331.364 1072.33 331.343 1072.5 331.343C1072.91 331.343 1073.18 331.509 1073.31 331.841C1073.47 332.172 1073.54 332.898 1073.49 334.017C1073.45 335.054 1073.25 336.318 1072.87 337.81C1072.5 339.261 1072.11 340.526 1071.69 341.604C1071.15 343.013 1070.65 344.444 1070.2 345.895C1069.74 347.346 1069.51 348.548 1069.51 349.501C1069.51 350.33 1069.74 350.869 1070.2 351.118C1070.53 351.243 1070.82 351.305 1071.07 351.305C1072.02 351.305 1072.96 350.849 1073.87 349.937C1074.78 349.025 1075.63 347.926 1076.42 346.641C1077.25 345.314 1077.93 344.05 1078.47 342.847C1078.22 341.894 1078.1 340.754 1078.1 339.427C1078.1 338.018 1078.26 336.587 1078.59 335.136C1078.93 333.685 1079.44 332.483 1080.15 331.53C1080.85 330.535 1081.77 330.037 1082.88 330.037C1083.67 330.037 1084.07 330.39 1084.07 331.094C1084.07 331.26 1083.86 331.965 1083.44 333.209C1083.07 334.452 1082.57 335.924 1081.95 337.624C1081.33 339.324 1080.67 340.961 1079.96 342.537C1079.8 342.868 1079.65 343.2 1079.53 343.532C1079.69 344.236 1080 344.817 1080.46 345.273C1080.92 345.687 1081.48 345.895 1082.14 345.895C1082.97 345.895 1083.73 345.521 1084.44 344.775C1085.19 343.988 1085.95 342.682 1086.74 340.858C1087.24 340.858 1087.49 341.044 1087.49 341.417C1086.82 343.076 1086.01 344.402 1085.06 345.397C1084.15 346.392 1083.11 346.89 1081.95 346.89C1080.54 346.89 1079.53 346.164 1078.9 344.713C1078.2 346.164 1077.37 347.553 1076.42 348.879C1075.46 350.165 1074.41 351.222 1073.25 352.051C1072.13 352.88 1070.9 353.295 1069.58 353.295ZM1089.64 353.108C1088.1 353.108 1086.71 352.611 1085.47 351.616C1084.27 350.621 1083.67 349.108 1083.67 347.076C1083.67 345.376 1084.04 343.573 1084.79 341.666C1085.57 339.759 1086.59 337.976 1087.83 336.318C1089.12 334.618 1090.53 333.25 1092.06 332.214C1093.64 331.136 1095.21 330.597 1096.79 330.597C1097.58 330.597 1098.34 330.825 1099.09 331.281C1099.84 331.737 1100.21 332.525 1100.21 333.644C1100.21 334.68 1099.82 335.821 1099.03 337.064C1098.24 338.308 1097.12 339.469 1095.67 340.547C1095.05 341.003 1094.26 341.438 1093.31 341.853C1092.35 342.267 1091.4 342.619 1090.45 342.91C1089.49 343.158 1088.7 343.283 1088.08 343.283C1087.88 343.78 1087.67 344.444 1087.46 345.273C1087.3 346.102 1087.21 346.952 1087.21 347.822C1087.21 348.859 1087.42 349.792 1087.83 350.621C1088.25 351.45 1089.02 351.864 1090.14 351.864C1091.5 351.864 1092.77 351.471 1093.93 350.683C1095.13 349.895 1096.19 348.9 1097.1 347.698C1098.05 346.496 1098.86 345.273 1099.53 344.029C1100.19 342.785 1100.71 341.728 1101.08 340.858C1101.58 340.858 1101.83 341.044 1101.83 341.417C1101.29 342.578 1100.67 343.842 1099.96 345.211C1099.3 346.579 1098.49 347.864 1097.54 349.066C1096.62 350.227 1095.5 351.201 1094.18 351.989C1092.89 352.735 1091.38 353.108 1089.64 353.108ZM1088.52 342.163C1089.1 342.163 1090.07 341.956 1091.44 341.542C1092.81 341.086 1094.05 340.381 1095.17 339.427C1096.25 338.474 1097.08 337.437 1097.66 336.318C1098.24 335.157 1098.53 334.183 1098.53 333.395C1098.53 332.483 1098.2 332.027 1097.54 332.027C1097.04 332.027 1096.35 332.359 1095.48 333.022C1094.61 333.685 1093.53 334.805 1092.25 336.38C1091.46 337.375 1090.72 338.453 1090.01 339.614C1089.31 340.775 1088.81 341.625 1088.52 342.163ZM1099.58 340.671C1099.91 339.966 1100.35 338.847 1100.88 337.313C1101.42 335.738 1101.98 333.996 1102.56 332.089C1103.14 330.182 1103.58 328.379 1103.87 326.679C1103.99 326.016 1104.22 325.539 1104.55 325.249C1104.89 324.917 1105.24 324.751 1105.61 324.751C1106.15 324.751 1106.65 325.021 1107.1 325.56C1107.56 326.057 1107.79 326.783 1107.79 327.736C1107.79 328.897 1107.43 329.892 1106.73 330.721C1106.07 331.55 1105.24 332.338 1104.24 333.084C1104.66 333.126 1105.09 333.167 1105.55 333.209C1106 333.209 1106.5 333.209 1107.04 333.209C1108.99 333.209 1110.92 333.084 1112.82 332.836C1112.91 333.084 1112.95 333.271 1112.95 333.395C1112.95 333.934 1112.78 334.618 1112.45 335.447C1112.16 336.277 1111.85 337.023 1111.52 337.686C1111.35 338.059 1111.02 338.743 1110.52 339.738C1110.03 340.692 1109.49 341.79 1108.91 343.034C1108.33 344.236 1107.83 345.439 1107.41 346.641C1107.04 347.802 1106.85 348.797 1106.85 349.626C1106.85 350.704 1107.27 351.243 1108.1 351.243C1108.89 351.243 1109.98 350.33 1111.39 348.506C1112.8 346.641 1114.21 344.091 1115.62 340.858C1116.12 340.858 1116.37 341.044 1116.37 341.417C1115.91 342.537 1115.33 343.76 1114.63 345.086C1113.96 346.413 1113.22 347.677 1112.39 348.879C1111.56 350.04 1110.67 351.015 1109.71 351.802C1108.76 352.548 1107.77 352.922 1106.73 352.922C1105.94 352.922 1105.15 352.611 1104.37 351.989C1103.58 351.325 1103.19 350.268 1103.19 348.817C1103.19 347.532 1103.43 346.288 1103.93 345.086C1104.43 343.842 1104.99 342.682 1105.61 341.604C1106.23 340.526 1106.79 339.572 1107.29 338.743C1107.79 337.914 1108.04 337.251 1108.04 336.753C1108.04 336.007 1107.56 335.468 1106.61 335.136C1105.69 334.805 1104.49 334.618 1103 334.577C1102.25 336.484 1101.69 337.893 1101.32 338.805C1100.95 339.717 1100.59 340.588 1100.26 341.417C1099.6 341.417 1099.37 341.168 1099.58 340.671ZM1115.36 353.108C1113.66 353.108 1112.27 352.59 1111.19 351.553C1110.16 350.476 1109.64 349.356 1109.64 348.195C1109.64 347.242 1109.89 346.371 1110.39 345.584C1110.84 344.755 1111.46 344.34 1112.25 344.34L1112.31 344.216C1113.23 342.557 1114.1 340.878 1114.93 339.179C1115.8 337.437 1116.75 335.593 1117.79 333.644C1118.66 332.027 1119.59 330.701 1120.58 329.664C1121.62 328.628 1122.82 328.11 1124.19 328.11C1124.52 328.11 1124.98 328.192 1125.56 328.358C1126.14 328.483 1126.43 328.773 1126.43 329.229C1126.43 329.561 1126.24 329.726 1125.87 329.726C1125.58 329.726 1125.25 329.643 1124.88 329.478C1124.54 329.312 1124.27 329.229 1124.07 329.229C1123.28 329.229 1122.62 329.685 1122.08 330.597C1121.54 331.509 1121.27 332.483 1121.27 333.52C1121.27 334.639 1121.45 335.655 1121.83 336.567C1122.2 337.437 1122.64 338.287 1123.13 339.116C1123.63 339.946 1124.07 340.795 1124.44 341.666C1124.81 342.495 1125 343.407 1125 344.402C1125 346.392 1124.61 348.009 1123.82 349.253C1123.07 350.455 1122.08 351.367 1120.83 351.989H1120.9C1123.09 351.989 1124.9 350.973 1126.31 348.942C1127.76 346.869 1129.19 344.174 1130.6 340.858C1131.09 340.858 1131.34 341.044 1131.34 341.417C1130.55 343.283 1129.68 345.107 1128.73 346.89C1127.78 348.672 1126.66 350.144 1125.37 351.305C1124.09 352.466 1122.51 353.046 1120.65 353.046C1119.86 353.046 1119.13 352.963 1118.47 352.797C1117.52 353.004 1116.48 353.108 1115.36 353.108ZM1114.43 346.516C1114.43 347.511 1114.66 348.465 1115.11 349.377C1115.57 350.289 1116.4 350.973 1117.6 351.429C1118.68 350.807 1119.51 349.854 1120.09 348.569C1120.71 347.242 1121.02 345.874 1121.02 344.464C1121.02 343.304 1120.9 342.122 1120.65 340.92C1120.4 339.717 1120.13 338.536 1119.84 337.375C1119.59 336.214 1119.46 335.178 1119.46 334.266C1119.46 333.976 1119.46 333.727 1119.46 333.52C1119.51 333.271 1119.55 333.043 1119.59 332.836C1118.84 333.955 1118.08 335.261 1117.29 336.753C1116.54 338.246 1115.82 339.676 1115.11 341.044C1114.41 342.412 1113.76 343.532 1113.18 344.402C1114.01 344.527 1114.43 345.231 1114.43 346.516ZM1112.38 349.626C1112.38 350.289 1112.6 350.869 1113.06 351.367C1113.52 351.864 1114.2 352.113 1115.11 352.113C1115.53 352.113 1115.92 352.072 1116.29 351.989C1115.42 351.45 1114.72 350.766 1114.18 349.937C1113.68 349.108 1113.43 348.154 1113.43 347.076C1113.06 347.491 1112.79 347.926 1112.62 348.382C1112.46 348.797 1112.38 349.211 1112.38 349.626ZM1133.56 353.108C1132.02 353.108 1130.63 352.611 1129.39 351.616C1128.19 350.621 1127.59 349.108 1127.59 347.076C1127.59 345.376 1127.96 343.573 1128.71 341.666C1129.49 339.759 1130.51 337.976 1131.75 336.318C1133.04 334.618 1134.45 333.25 1135.98 332.214C1137.56 331.136 1139.13 330.597 1140.71 330.597C1141.5 330.597 1142.26 330.825 1143.01 331.281C1143.75 331.737 1144.13 332.525 1144.13 333.644C1144.13 334.68 1143.73 335.821 1142.95 337.064C1142.16 338.308 1141.04 339.469 1139.59 340.547C1138.97 341.003 1138.18 341.438 1137.23 341.853C1136.27 342.267 1135.32 342.619 1134.36 342.91C1133.41 343.158 1132.62 343.283 1132 343.283C1131.79 343.78 1131.59 344.444 1131.38 345.273C1131.21 346.102 1131.13 346.952 1131.13 347.822C1131.13 348.859 1131.34 349.792 1131.75 350.621C1132.17 351.45 1132.93 351.864 1134.05 351.864C1135.42 351.864 1136.69 351.471 1137.85 350.683C1139.05 349.895 1140.11 348.9 1141.02 347.698C1141.97 346.496 1142.78 345.273 1143.44 344.029C1144.11 342.785 1144.63 341.728 1145 340.858C1145.5 340.858 1145.74 341.044 1145.74 341.417C1145.21 342.578 1144.58 343.842 1143.88 345.211C1143.22 346.579 1142.41 347.864 1141.45 349.066C1140.54 350.227 1139.42 351.201 1138.1 351.989C1136.81 352.735 1135.3 353.108 1133.56 353.108ZM1132.44 342.163C1133.02 342.163 1133.99 341.956 1135.36 341.542C1136.73 341.086 1137.97 340.381 1139.09 339.427C1140.17 338.474 1141 337.437 1141.58 336.318C1142.16 335.157 1142.45 334.183 1142.45 333.395C1142.45 332.483 1142.12 332.027 1141.45 332.027C1140.96 332.027 1140.27 332.359 1139.4 333.022C1138.53 333.685 1137.45 334.805 1136.17 336.38C1135.38 337.375 1134.63 338.453 1133.93 339.614C1133.22 340.775 1132.73 341.625 1132.44 342.163Z" fill="#FC5101"/>
<path d="M389 36.5547C389 36.8047 389 37.0547 389 37.3047C401.217 37.3464 413.433 37.3859 425.65 37.4234C535.6 37.761 645.55 37.9297 755.5 37.9297C865.45 37.9297 975.4 37.761 1085.35 37.4235C1097.57 37.386 1109.78 37.3464 1122 37.3048C1122 37.0548 1122 36.8048 1122 36.5548C1109.78 36.5131 1097.57 36.4735 1085.35 36.436C975.4 36.0985 865.45 35.9297 755.5 35.9297C645.55 35.9297 535.6 36.0985 425.65 36.4359C413.433 36.4734 401.217 36.513 389 36.5547Z" fill="#FC5101"/>
<path d="M11 337.555C11 337.805 11 338.055 11 338.305C25.3 338.346 39.6 338.386 53.9 338.423C182.6 338.761 311.3 338.93 440 338.93C568.7 338.93 697.4 338.761 826.1 338.424C840.4 338.386 854.7 338.346 869 338.305C869 338.055 869 337.805 869 337.555C854.7 337.513 840.4 337.474 826.1 337.436C697.4 337.098 568.7 336.93 440 336.93C311.3 336.93 182.6 337.098 53.9 337.436C39.6 337.473 25.3 337.513 11 337.555Z" fill="#FC5101"/>
</svg>
